<svg width="38" height="26" viewBox="0 0 38 26" fill="none" xmlns="http://www.w3.org/2000/svg">
<path d="M11.5479 20.2435H22.7287C25.8151 20.2435 28.3191 17.7706 28.3191 14.7225H30.1826C34.2939 14.7225 37.6365 11.4215 37.6365 7.36127C37.6365 3.30107 34.2939 0 30.1826 0H7.35505C6.58055 0 5.95745 0.615356 5.95745 1.38024V14.7225C5.95745 17.7706 8.46149 20.2435 11.5479 20.2435ZM30.1826 3.68063C32.2383 3.68063 33.9096 5.33117 33.9096 7.36127C33.9096 9.39137 32.2383 11.0419 30.1826 11.0419H28.3191V3.68063H30.1826ZM32.9603 25.7644H3.17971C0.407789 25.7644 -0.37254 22.0838 1.0833 22.0838H35.0509C36.5068 22.0838 35.7381 25.7644 32.9603 25.7644V25.7644Z" fill="#6B0090"/>
</svg>
