<svg width="18" height="31" viewBox="0 0 18 31" fill="none" xmlns="http://www.w3.org/2000/svg">
<path d="M11.375 27.6241V26.6241H12.375H15.75C16.4388 26.6241 17 26.0629 17 25.3743V15.2499C17 14.5613 16.4388 14 15.75 14H2.25C1.56121 14 1 14.5613 1 15.2499V25.3743C1 26.0629 1.56121 26.6241 2.25 26.6241H7.3125H7.64589L7.91258 26.8242L11.375 29.4216V27.6241Z" stroke="#CCCCCC" stroke-width="2"/>
<path d="M4.05578 20.22C4.05578 19.5667 4.34245 19.24 4.91578 19.24C5.51578 19.24 5.81578 19.5667 5.81578 20.22C5.81578 20.8867 5.51578 21.22 4.91578 21.22C4.34245 21.22 4.05578 20.8867 4.05578 20.22ZM7.63859 20.22C7.63859 19.5667 7.92526 19.24 8.49859 19.24C9.09859 19.24 9.39859 19.5667 9.39859 20.22C9.39859 20.8867 9.09859 21.22 8.49859 21.22C7.92526 21.22 7.63859 20.8867 7.63859 20.22ZM11.2214 20.22C11.2214 19.5667 11.5081 19.24 12.0814 19.24C12.6814 19.24 12.9814 19.5667 12.9814 20.22C12.9814 20.8867 12.6814 21.22 12.0814 21.22C11.5081 21.22 11.2214 20.8867 11.2214 20.22Z" fill="#CCCCCC"/>
</svg>
