<svg width="18" height="31" viewBox="0 0 18 31" fill="none" xmlns="http://www.w3.org/2000/svg">
<path d="M11.375 27.6241V26.6241H12.375H15.75C16.4388 26.6241 17 26.0629 17 25.3743V15.2499C17 14.5613 16.4388 14 15.75 14H2.25C1.56121 14 1 14.5613 1 15.2499V25.3743C1 26.0629 1.56121 26.6241 2.25 26.6241H7.3125H7.64589L7.91258 26.8242L11.375 29.4216V27.6241Z" stroke="#6B0090" stroke-width="2"/>
<path d="M4.05578 20.24C4.05578 19.9067 4.12911 19.66 4.27578 19.5C4.42245 19.34 4.62911 19.26 4.89578 19.26C5.18911 19.26 5.40911 19.34 5.55578 19.5C5.71578 19.66 5.79578 19.9067 5.79578 20.24C5.79578 20.56 5.71578 20.8067 5.55578 20.98C5.40911 21.14 5.18911 21.22 4.89578 21.22C4.62911 21.22 4.42245 21.14 4.27578 20.98C4.12911 20.8067 4.05578 20.56 4.05578 20.24ZM7.63859 20.24C7.63859 19.9067 7.71193 19.66 7.85859 19.5C8.00526 19.34 8.21193 19.26 8.47859 19.26C8.77193 19.26 8.99193 19.34 9.13859 19.5C9.29859 19.66 9.37859 19.9067 9.37859 20.24C9.37859 20.56 9.29859 20.8067 9.13859 20.98C8.99193 21.14 8.77193 21.22 8.47859 21.22C8.21193 21.22 8.00526 21.14 7.85859 20.98C7.71193 20.8067 7.63859 20.56 7.63859 20.24ZM11.2214 20.24C11.2214 19.9067 11.2947 19.66 11.4414 19.5C11.5881 19.34 11.7947 19.26 12.0614 19.26C12.3547 19.26 12.5747 19.34 12.7214 19.5C12.8814 19.66 12.9614 19.9067 12.9614 20.24C12.9614 20.56 12.8814 20.8067 12.7214 20.98C12.5747 21.14 12.3547 21.22 12.0614 21.22C11.7947 21.22 11.5881 21.14 11.4414 20.98C11.2947 20.8067 11.2214 20.56 11.2214 20.24Z" fill="#6B0090"/>
</svg>
