<svg width="44" height="50" viewBox="0 0 44 50" fill="none" xmlns="http://www.w3.org/2000/svg">
<path d="M38.5 6.25H29.3333C29.3333 2.80273 26.0448 0 22 0C17.9552 0 14.6667 2.80273 14.6667 6.25H5.5C2.46354 6.25 0 8.34961 0 10.9375V45.3125C0 47.9004 2.46354 50 5.5 50H38.5C41.5365 50 44 47.9004 44 45.3125V10.9375C44 8.34961 41.5365 6.25 38.5 6.25ZM11 41.4062C9.47604 41.4062 8.25 40.3613 8.25 39.0625C8.25 37.7637 9.47604 36.7188 11 36.7188C12.524 36.7188 13.75 37.7637 13.75 39.0625C13.75 40.3613 12.524 41.4062 11 41.4062ZM11 32.0312C9.47604 32.0312 8.25 30.9863 8.25 29.6875C8.25 28.3887 9.47604 27.3438 11 27.3438C12.524 27.3438 13.75 28.3887 13.75 29.6875C13.75 30.9863 12.524 32.0312 11 32.0312ZM11 22.6562C9.47604 22.6562 8.25 21.6113 8.25 20.3125C8.25 19.0137 9.47604 17.9688 11 17.9688C12.524 17.9688 13.75 19.0137 13.75 20.3125C13.75 21.6113 12.524 22.6562 11 22.6562ZM22 3.90625C23.524 3.90625 24.75 4.95117 24.75 6.25C24.75 7.54883 23.524 8.59375 22 8.59375C20.476 8.59375 19.25 7.54883 19.25 6.25C19.25 4.95117 20.476 3.90625 22 3.90625ZM36.6667 39.8438C36.6667 40.2734 36.2542 40.625 35.75 40.625H19.25C18.7458 40.625 18.3333 40.2734 18.3333 39.8438V38.2812C18.3333 37.8516 18.7458 37.5 19.25 37.5H35.75C36.2542 37.5 36.6667 37.8516 36.6667 38.2812V39.8438ZM36.6667 30.4688C36.6667 30.8984 36.2542 31.25 35.75 31.25H19.25C18.7458 31.25 18.3333 30.8984 18.3333 30.4688V28.9063C18.3333 28.4766 18.7458 28.125 19.25 28.125H35.75C36.2542 28.125 36.6667 28.4766 36.6667 28.9063V30.4688ZM36.6667 21.0938C36.6667 21.5234 36.2542 21.875 35.75 21.875H19.25C18.7458 21.875 18.3333 21.5234 18.3333 21.0938V19.5312C18.3333 19.1016 18.7458 18.75 19.25 18.75H35.75C36.2542 18.75 36.6667 19.1016 36.6667 19.5312V21.0938Z" fill="#6B0090"/>
</svg>
