<svg width="43" height="21" viewBox="0 0 43 21" fill="none" xmlns="http://www.w3.org/2000/svg">
<path d="M32.0208 1.05618e-07H11.0518C9.32351 -0.000243682 7.62196 0.421547 6.09865 1.22782C4.57533 2.03409 3.27753 3.19983 2.32078 4.62125C1.36402 6.04267 0.778007 7.67566 0.614901 9.37485C0.451795 11.074 0.716661 12.7867 1.38592 14.3603C2.05517 15.934 3.10805 17.3198 4.45082 18.3943C5.79359 19.4689 7.38458 20.199 9.08214 20.5194C10.7797 20.8399 12.5312 20.7409 14.1806 20.2312C15.8301 19.7215 17.3263 18.8169 18.5361 17.598H24.5319C25.7416 18.8168 27.2376 19.7213 28.8869 20.231C30.5361 20.7408 32.2874 20.8399 33.9848 20.5196C35.6822 20.1994 37.2731 19.4697 38.6159 18.3954C39.9587 17.3212 41.0117 15.9357 41.6812 14.3624C42.3508 12.7891 42.616 11.0767 42.4534 9.37766C42.2908 7.67863 41.7053 6.04565 40.7492 4.62408C39.793 3.20251 38.4958 2.03645 36.9729 1.22969C35.4501 0.422934 33.7489 0.000503043 32.0208 1.05618e-07ZM16.817 11.1282C16.817 11.3341 16.7342 11.5315 16.5868 11.6771C16.4393 11.8227 16.2394 11.9045 16.0309 11.9045H12.6241V15.2689C12.6241 15.4748 12.5413 15.6723 12.3939 15.8179C12.2465 15.9635 12.0465 16.0453 11.838 16.0453H10.2657C10.0571 16.0453 9.85719 15.9635 9.70975 15.8179C9.56232 15.6723 9.47949 15.4748 9.47949 15.2689V11.9045H6.07277C5.86427 11.9045 5.6643 11.8227 5.51687 11.6771C5.36944 11.5315 5.28661 11.3341 5.28661 11.1282V9.57539C5.28661 9.36948 5.36944 9.17201 5.51687 9.02641C5.6643 8.88081 5.86427 8.79901 6.07277 8.79901H9.47949V5.43468C9.47949 5.22877 9.56232 5.0313 9.70975 4.8857C9.85719 4.7401 10.0571 4.6583 10.2657 4.6583H11.838C12.0465 4.6583 12.2465 4.7401 12.3939 4.8857C12.5413 5.0313 12.6241 5.22877 12.6241 5.43468V8.79901H16.0309C16.2394 8.79901 16.4393 8.88081 16.5868 9.02641C16.7342 9.17201 16.817 9.36948 16.817 9.57539V11.1282ZM30.968 16.0453C30.4497 16.0453 29.9431 15.8935 29.5121 15.6091C29.0812 15.3247 28.7453 14.9206 28.5469 14.4477C28.3486 13.9748 28.2967 13.4544 28.3978 12.9524C28.4989 12.4504 28.7485 11.9893 29.115 11.6274C29.4815 11.2654 29.9484 11.0189 30.4568 10.9191C30.9651 10.8192 31.492 10.8705 31.9708 11.0664C32.4497 11.2622 32.859 11.5939 33.1469 12.0195C33.4349 12.4451 33.5886 12.9455 33.5886 13.4573C33.5886 14.1437 33.3125 14.8019 32.821 15.2873C32.3296 15.7726 31.663 16.0453 30.968 16.0453ZM35.1609 9.83419C34.6426 9.83419 34.1359 9.68241 33.705 9.39804C33.274 9.11367 32.9382 8.70949 32.7398 8.23661C32.5415 7.76372 32.4896 7.24337 32.5907 6.74136C32.6918 6.23935 32.9414 5.77822 33.3079 5.41629C33.6744 5.05436 34.1413 4.80788 34.6496 4.70803C35.158 4.60817 35.6849 4.65942 36.1637 4.85529C36.6426 5.05117 37.0518 5.38287 37.3398 5.80846C37.6277 6.23404 37.7814 6.7344 37.7814 7.24624C37.7814 7.93261 37.5053 8.59086 37.0139 9.0762C36.5225 9.56153 35.8559 9.83419 35.1609 9.83419Z" fill="#6B0090"/>
</svg>
