<svg width="31" height="26" viewBox="0 0 31 26" fill="none" xmlns="http://www.w3.org/2000/svg">
<path d="M27.2823 12.8822H2.90362C2.15759 12.8822 1.44211 13.1731 0.914585 13.6907C0.387059 14.2084 0.0906982 14.9106 0.0906982 15.6427C0.0906982 16.3748 0.387059 17.077 0.914585 17.5946C1.44211 18.1123 2.15759 18.4032 2.90362 18.4032H27.2823C28.0283 18.4032 28.7438 18.1123 29.2714 17.5946C29.7989 17.077 30.0952 16.3748 30.0952 15.6427C30.0952 14.9106 29.7989 14.2084 29.2714 13.6907C28.7438 13.1731 28.0283 12.8822 27.2823 12.8822ZM28.22 20.2435H1.96598C1.7173 20.2435 1.47881 20.3404 1.30297 20.513C1.12713 20.6856 1.02834 20.9196 1.02834 21.1636V22.0838C1.02834 23.06 1.42349 23.9961 2.12686 24.6864C2.83022 25.3767 3.78419 25.7644 4.77891 25.7644H25.407C26.4017 25.7644 27.3557 25.3767 28.0591 24.6864C28.7624 23.9961 29.1576 23.06 29.1576 22.0838V21.1636C29.1576 20.9196 29.0588 20.6856 28.883 20.513C28.7071 20.3404 28.4686 20.2435 28.22 20.2435ZM3.52716 11.0419H26.6588C28.6847 11.0419 29.8597 8.51722 28.6993 6.67805C26.3447 2.94451 21.1613 0.00575099 15.093 0C9.02525 0.00575099 3.84127 2.94451 1.48661 6.67747C0.325109 8.51664 1.50126 11.0419 3.52716 11.0419ZM22.5941 4.60079C22.7796 4.60079 22.9608 4.65476 23.115 4.75587C23.2692 4.85697 23.3894 5.00068 23.4604 5.16882C23.5313 5.33696 23.5499 5.52197 23.5137 5.70046C23.4775 5.87896 23.3882 6.04291 23.2571 6.1716C23.126 6.30029 22.9589 6.38792 22.777 6.42343C22.5951 6.45893 22.4066 6.44071 22.2353 6.37107C22.064 6.30142 21.9175 6.18348 21.8145 6.03216C21.7115 5.88084 21.6565 5.70294 21.6565 5.52095C21.6565 5.27691 21.7552 5.04286 21.9311 4.8703C22.1069 4.69774 22.3454 4.60079 22.5941 4.60079ZM15.093 2.76048C15.2784 2.76048 15.4597 2.81444 15.6139 2.91555C15.7681 3.01666 15.8883 3.16037 15.9592 3.3285C16.0302 3.49664 16.0488 3.68165 16.0126 3.86015C15.9764 4.03864 15.8871 4.2026 15.756 4.33128C15.6248 4.45997 15.4578 4.54761 15.2759 4.58311C15.094 4.61862 14.9055 4.60039 14.7341 4.53075C14.5628 4.4611 14.4164 4.34317 14.3133 4.19185C14.2103 4.04053 14.1553 3.86262 14.1553 3.68063C14.1553 3.43659 14.2541 3.20255 14.43 3.02998C14.6058 2.85742 14.8443 2.76048 15.093 2.76048ZM7.59183 4.60079C7.77728 4.60079 7.95856 4.65476 8.11276 4.75587C8.26695 4.85697 8.38713 5.00068 8.4581 5.16882C8.52907 5.33696 8.54764 5.52197 8.51146 5.70046C8.47528 5.87896 8.38598 6.04291 8.25485 6.1716C8.12371 6.30029 7.95664 6.38792 7.77476 6.42343C7.59287 6.45893 7.40434 6.44071 7.23301 6.37107C7.06168 6.30142 6.91524 6.18348 6.81221 6.03216C6.70918 5.88084 6.65419 5.70294 6.65419 5.52095C6.65419 5.27691 6.75298 5.04286 6.92882 4.8703C7.10466 4.69774 7.34315 4.60079 7.59183 4.60079Z" fill="#6B0090"/>
</svg>
