<svg width="28" height="37" viewBox="0 0 28 37" fill="none" xmlns="http://www.w3.org/2000/svg">
<path d="M24.4828 11.523H24.4144C24.5829 10.0746 24.4393 8.60752 23.9928 7.21782C23.5463 5.82813 22.8072 4.54725 21.8238 3.4592C20.8404 2.37114 19.635 1.50049 18.2866 0.904333C16.9383 0.308182 15.4774 0 13.9999 0C12.5223 0 11.0614 0.308182 9.71307 0.904333C8.36471 1.50049 7.1593 2.37114 6.17591 3.4592C5.19252 4.54725 4.45335 5.82813 4.0069 7.21782C3.56044 8.60752 3.41678 10.0746 3.58533 11.523H3.5169C2.59015 11.523 1.70136 11.8862 1.04604 12.5328C0.390733 13.1793 0.022583 14.0563 0.022583 14.9706C0.022583 15.885 0.390733 16.762 1.04604 17.4085C1.70136 18.0551 2.59015 18.4183 3.5169 18.4183H24.4828C25.4096 18.4183 26.2983 18.0551 26.9537 17.4085C27.609 16.762 27.9771 15.885 27.9771 14.9706C27.9771 14.0563 27.609 13.1793 26.9537 12.5328C26.2983 11.8862 25.4096 11.523 24.4828 11.523ZM11.9164 35.4909C12.1 35.8836 12.3939 36.2162 12.7631 36.4493C13.1323 36.6824 13.5615 36.8063 13.9999 36.8063C14.4382 36.8063 14.8674 36.6824 15.2366 36.4493C15.6058 36.2162 15.8997 35.8836 16.0833 35.4909L23.318 20.7168H4.68167L11.9164 35.4909Z" fill="#6B0090"/>
</svg>
