<svg width="32" height="26" viewBox="0 0 32 26" fill="none" xmlns="http://www.w3.org/2000/svg">
<path d="M30.8336 5.96809L27.5264 0.754817C27.2308 0.286831 26.706 0 26.1454 0H5.55806C4.99752 0 4.47264 0.286831 4.17708 0.754817L0.869856 5.96809C-0.837263 8.66027 0.676213 12.4042 3.86623 12.8319C4.09555 12.8621 4.32996 12.8772 4.56437 12.8772C6.07275 12.8772 7.40787 12.223 8.32513 11.2116C9.24239 12.223 10.5826 12.8772 12.0859 12.8772C13.5943 12.8772 14.9294 12.223 15.8466 11.2116C16.7639 12.223 18.1041 12.8772 19.6074 12.8772C21.1158 12.8772 22.4509 12.223 23.3682 11.2116C24.2905 12.223 25.6256 12.8772 27.1289 12.8772C27.3684 12.8772 27.5977 12.8621 27.8271 12.8319C31.0273 12.4092 32.5458 8.6653 30.8336 5.96809ZM27.1391 14.4925C26.6295 14.4925 26.125 14.417 25.6358 14.3013V19.3233H6.06765V14.3013C5.57845 14.412 5.07396 14.4925 4.56437 14.4925C4.25862 14.4925 3.94777 14.4724 3.64711 14.4321C3.36174 14.3919 3.08147 14.3264 2.81139 14.251V24.1542C2.81139 25.0448 3.5401 25.7644 4.44207 25.7644H27.2716C28.1736 25.7644 28.9023 25.0448 28.9023 24.1542V14.251C28.6271 14.3315 28.3519 14.3969 28.0666 14.4321C27.7557 14.4724 27.45 14.4925 27.1391 14.4925Z" fill="#6B0090"/>
</svg>
