<svg width="19" height="5" viewBox="0 0 19 5" fill="none" xmlns="http://www.w3.org/2000/svg">
<path d="M0.623258 2.528C0.623258 1.884 0.791925 1.43167 1.12926 1.171C1.46659 0.895 1.88059 0.757 2.37126 0.757C2.84659 0.757 3.26059 0.895 3.61326 1.171C3.96593 1.43167 4.14226 1.884 4.14226 2.528C4.14226 3.15667 3.96593 3.609 3.61326 3.885C3.26059 4.161 2.84659 4.299 2.37126 4.299C1.88059 4.299 1.46659 4.161 1.12926 3.885C0.791925 3.609 0.623258 3.15667 0.623258 2.528ZM7.73709 2.528C7.73709 1.884 7.90575 1.43167 8.24309 1.171C8.58042 0.895 8.99442 0.757 9.48509 0.757C9.96042 0.757 10.3744 0.895 10.7271 1.171C11.0798 1.43167 11.2561 1.884 11.2561 2.528C11.2561 3.15667 11.0798 3.609 10.7271 3.885C10.3744 4.161 9.96042 4.299 9.48509 4.299C8.99442 4.299 8.58042 4.161 8.24309 3.885C7.90575 3.609 7.73709 3.15667 7.73709 2.528ZM14.8509 2.528C14.8509 1.884 15.0196 1.43167 15.3569 1.171C15.6942 0.895 16.1082 0.757 16.5989 0.757C17.0742 0.757 17.4882 0.895 17.8409 1.171C18.1936 1.43167 18.3699 1.884 18.3699 2.528C18.3699 3.15667 18.1936 3.609 17.8409 3.885C17.4882 4.161 17.0742 4.299 16.5989 4.299C16.1082 4.299 15.6942 4.161 15.3569 3.885C15.0196 3.609 14.8509 3.15667 14.8509 2.528Z" fill="#C4C4C4"/>
</svg>
