<svg width="18" height="18" viewBox="0 0 18 18" fill="none" xmlns="http://www.w3.org/2000/svg">
<path d="M13.0625 5.0625C13.0625 7.30514 11.2426 9.125 9 9.125C6.75736 9.125 4.9375 7.30514 4.9375 5.0625C4.9375 2.81986 6.75736 1 9 1C11.2426 1 13.0625 2.81986 13.0625 5.0625ZM9 12.8125C9.98368 12.8125 10.9214 12.6095 11.7731 12.25H13.5C15.4333 12.25 17 13.8167 17 15.75V16.3125C17 16.6919 16.6919 17 16.3125 17H1.6875C1.30814 17 1 16.6919 1 16.3125V15.75C1 13.8167 2.56674 12.25 4.5 12.25H6.22754C7.08044 12.609 8.01509 12.8125 9 12.8125Z" stroke="#6B0090" stroke-width="2"/>
</svg>
