<svg width="35" height="29" viewBox="0 0 35 29" fill="none" xmlns="http://www.w3.org/2000/svg">
<path d="M20.4167 25.0487H0.972222C0.435069 25.0487 0 25.449 0 25.9433V27.7325C0 28.2267 0.435069 28.6271 0.972222 28.6271H20.4167C20.9538 28.6271 21.3889 28.2267 21.3889 27.7325V25.9433C21.3889 25.449 20.9538 25.0487 20.4167 25.0487ZM33.0556 7.15677V4.47298C33.0556 3.97872 32.6205 3.57838 32.0833 3.57838C31.5462 3.57838 31.1111 3.97872 31.1111 4.47298V7.15677H29.1667V4.47298C29.1667 3.97872 28.7316 3.57838 28.1944 3.57838C27.6573 3.57838 27.2222 3.97872 27.2222 4.47298V7.15677H26.25C25.7128 7.15677 25.2778 7.5571 25.2778 8.05136V9.84056C25.2778 11.84 26.713 13.5134 28.6806 14.086V20.711C28.6806 21.491 28.1033 22.2162 27.2672 22.3431C26.2026 22.5047 25.2778 21.7493 25.2778 20.7994V19.2338C25.2778 16.5165 22.8837 14.3135 19.9306 14.3135H19.4444V3.57838C19.4444 1.60189 17.7036 0 15.5556 0H5.83333C3.68533 0 1.94444 1.60189 1.94444 3.57838V23.2595H19.4444V16.9973H19.9306C21.2728 16.9973 22.3611 17.9987 22.3611 19.2338V20.6098C22.3611 22.8279 24.1184 24.8122 26.518 25.0274C29.2706 25.2751 31.5972 23.2824 31.5972 20.7994V14.086C33.5648 13.5134 35 11.84 35 9.84056V8.05136C35 7.5571 34.5649 7.15677 34.0278 7.15677H33.0556ZM15.8041 9.82714L10.1105 17.5989C9.97682 17.7851 9.73316 17.8919 9.47917 17.8919C9.01311 17.8919 8.66068 17.5408 8.77005 17.1695L10.1688 12.5243H6.5625C6.12196 12.5243 5.78168 12.2118 5.84002 11.8595L6.81224 5.87694C6.86024 5.58563 7.16892 5.36758 7.53472 5.36758H11.6667C12.1455 5.36758 12.4943 5.73324 12.3715 6.10618L11.6667 8.94596H15.1727C15.7342 8.94596 16.0848 9.43687 15.8041 9.82714Z" fill="#6B0090"/>
</svg>
