<svg width="50" height="50" viewBox="0 0 50 50" fill="none" xmlns="http://www.w3.org/2000/svg">
<circle cx="25.3126" cy="25.1805" r="24.6373" fill="#6B0090"/>
<path d="M25.4053 15.9603C27.5213 15.9603 29.0623 16.4203 30.0283 17.3403C31.0097 18.245 31.5003 19.4947 31.5003 21.0893C31.5003 22.04 31.301 22.937 30.9023 23.7803C30.5037 24.6083 29.8367 25.2753 28.9013 25.7813C27.9813 26.2873 26.724 26.5403 25.1293 26.5403H23.6343V32.3823H20.1613V15.9603H25.4053ZM25.2213 18.8123H23.6343V23.6883H24.7843C25.7657 23.6883 26.54 23.4967 27.1073 23.1133C27.69 22.7147 27.9813 22.0783 27.9813 21.2043C27.9813 19.6097 27.0613 18.8123 25.2213 18.8123Z" fill="white"/>
</svg>
