<svg width="20" height="30" viewBox="0 0 20 30" fill="none" xmlns="http://www.w3.org/2000/svg">
<path d="M17 0H3C1.34375 0 0 1.23646 0 2.76048V26.6846C0 28.2086 1.34375 29.4451 3 29.4451H17C18.6562 29.4451 20 28.2086 20 26.6846V2.76048C20 1.23646 18.6562 0 17 0ZM10 27.6048C8.89375 27.6048 8 26.7824 8 25.7644C8 24.7465 8.89375 23.9241 10 23.9241C11.1063 23.9241 12 24.7465 12 25.7644C12 26.7824 11.1063 27.6048 10 27.6048ZM17 21.3937C17 21.7732 16.6625 22.0838 16.25 22.0838H3.75C3.3375 22.0838 3 21.7732 3 21.3937V3.45059C3 3.07103 3.3375 2.76048 3.75 2.76048H16.25C16.6625 2.76048 17 3.07103 17 3.45059V21.3937Z" fill="#6B0090"/>
</svg>
