<svg width="40" height="30" viewBox="0 0 40 30" fill="none" xmlns="http://www.w3.org/2000/svg">
<path d="M39.962 24.8203C39.437 23.6527 37.9746 23.0975 36.6996 23.584L35.3185 24.1105L32.8998 18.2783C35.8934 16.2751 36.9496 12.5377 35.056 9.53283L29.6437 0.918992C29.1437 0.123428 28.075 -0.208534 27.1438 0.140598L20.0004 2.85353L12.857 0.140598C11.9258 -0.214258 10.8571 0.123428 10.3571 0.918992L4.94489 9.53283C3.05748 12.5377 4.10743 16.2751 7.10103 18.2726L4.6824 24.1048L3.30121 23.5783C2.02627 23.0918 0.570093 23.6469 0.0388676 24.8145C-0.0673774 25.0492 0.051367 25.3182 0.307605 25.4155L10.4509 29.2731C10.7071 29.3704 10.9946 29.2617 11.1008 29.027C11.6258 27.8594 11.0259 26.5201 9.75091 26.0336L8.36972 25.5071L10.8321 19.5775C11.1071 19.6062 11.3821 19.6519 11.6508 19.6519C14.8819 19.6519 17.863 17.7575 18.738 14.7698L20.0004 10.4543L21.2629 14.7698C22.1378 17.7575 25.1189 19.6519 28.35 19.6519C28.6188 19.6519 28.8938 19.6062 29.1687 19.5775L31.6249 25.5071L30.2437 26.0336C28.9688 26.5201 28.3625 27.8594 28.8938 29.027C29 29.2617 29.2937 29.3704 29.5437 29.2731L39.6932 25.4155C39.9432 25.3182 40.0682 25.0549 39.962 24.8203ZM17.2443 9.281L10.2384 6.61958L12.5195 2.99089L18.4255 5.2345L17.2443 9.281V9.281ZM22.7565 9.281L21.5754 5.2345L27.4813 2.99089L29.7625 6.61958L22.7565 9.281V9.281Z" fill="#6B0090"/>
</svg>
