<svg width="25" height="18" viewBox="0 0 25 18" fill="none" xmlns="http://www.w3.org/2000/svg">
<path d="M0 17.9375V0.68457H0.878906V17.9375H0ZM1.31138 17.9253V0.68457H1.75781V17.9253H1.31138ZM2.63672 17.9253V0.68457H3.06919V17.9253H2.63672ZM4.827 17.9253V0.68457H5.25947V17.9253H4.827ZM6.58481 17.9253V0.68457H7.44976V17.9253H6.58481ZM8.7751 17.9253V0.68457H9.20757V17.9253H8.7751ZM9.654 17.9253V0.68457H10.0865V17.9253H9.654ZM10.5329 17.9253V0.68457H10.9654V17.9253H10.5329ZM12.2768 17.9253V0.68457H13.1557V17.9253H12.2768ZM14.4671 17.9253V0.68457H15.346V17.9253H14.4671ZM16.2249 17.9253V0.68457H17.1038V17.9253H16.2249ZM17.9827 17.9253V0.68457H18.8617V17.9253H17.9827ZM19.2941 17.9253V0.68457H20.173V17.9253H19.2941ZM21.4983 17.9253V0.68457H22.8097V17.9253H21.4983ZM23.2422 17.9253V0.68457H23.6886V17.9253H23.2422ZM24.1211 17.9375V0.68457H25V17.9375H24.1211Z" fill="black"/>
</svg>
