<svg width="18" height="18" viewBox="0 0 18 18" fill="none" xmlns="http://www.w3.org/2000/svg">
<path d="M12.2913 11.1953L11.8114 11.8091L11.1975 12.289C10.1264 13.1263 8.78074 13.6236 7.31303 13.6236C3.82541 13.6236 1 10.7984 1 7.31179C1 3.82517 3.82541 1 7.31303 1C10.8007 1 13.6261 3.82517 13.6261 7.31179C13.6261 8.77911 13.1287 10.1245 12.2913 11.1953ZM12.8134 13.0768V12.8113H13.0791H13.5896L16.9368 16.158L16.1608 16.9339L12.8134 13.5871V13.0768ZM17.0442 16.0506C17.0443 16.0505 17.0445 16.0503 17.0446 16.0502L17.0442 16.0506ZM1.81271 7.31179C1.81271 10.3536 4.27569 12.8113 7.31303 12.8113C10.3549 12.8113 12.8134 10.349 12.8134 7.31179C12.8134 4.27001 10.3504 1.81223 7.31303 1.81223C4.27116 1.81223 1.81271 4.27455 1.81271 7.31179Z" stroke="#6B0090" stroke-width="2"/>
</svg>
