<svg width="139" height="19" viewBox="0 0 139 19" fill="none" xmlns="http://www.w3.org/2000/svg">
<path d="M0.44 1.2H10.52C12.2 1.2 13.416 1.584 14.168 2.352C14.936 3.104 15.32 4.32 15.32 6V8.4C15.32 10.08 14.936 11.304 14.168 12.072C13.416 12.824 12.2 13.2 10.52 13.2H4.76V18H0.44V1.2ZM11 6C11 5.04 10.52 4.56 9.56 4.56H4.76V9.84H9.56C10.52 9.84 11 9.36 11 8.4V6ZM20.1294 18H15.4494L21.8094 1.2H26.6094L32.9694 18H28.2894L27.2094 15H21.2094L20.1294 18ZM22.2894 11.88H26.1294L24.2094 6.24L22.2894 11.88ZM49.8884 18H45.3284L39.5684 7.92V18H35.2484V1.2H39.8084L45.5684 11.28V1.2H49.8884V18ZM63.2197 1.2C65.0277 1.2 66.3957 1.672 67.3237 2.616C68.2677 3.544 68.7397 4.912 68.7397 6.72V12.48C68.7397 14.288 68.2677 15.664 67.3237 16.608C66.3957 17.536 65.0277 18 63.2197 18H53.8597V1.2H63.2197ZM64.4197 6.72C64.4197 5.28 63.6997 4.56 62.2597 4.56H58.1797V14.64H62.2597C63.6997 14.64 64.4197 13.92 64.4197 12.48V6.72ZM74.4866 18H69.8066L76.1666 1.2H80.9666L87.3266 18H82.6466L81.5666 15H75.5666L74.4866 18ZM76.6466 11.88H80.4866L78.5666 6.24L76.6466 11.88ZM102.097 17.76C98.5289 18.08 95.5689 18.24 93.2169 18.24C91.6489 18.24 90.4969 17.872 89.7609 17.136C89.0249 16.4 88.6569 15.248 88.6569 13.68V6C88.6569 4.32 89.0329 3.104 89.7849 2.352C90.5529 1.584 91.7769 1.2 93.4569 1.2H102.097V4.56H94.4169C93.4569 4.56 92.9769 5.04 92.9769 6V13.68C92.9769 14.048 93.0809 14.344 93.2889 14.568C93.5129 14.776 93.7929 14.88 94.1289 14.88C94.4649 14.88 94.8329 14.88 95.2329 14.88C95.6329 14.864 96.0489 14.848 96.4809 14.832C96.9129 14.816 97.3449 14.8 97.7769 14.784C98.2249 14.768 98.7929 14.736 99.4809 14.688C100.185 14.64 101.057 14.584 102.097 14.52V17.76ZM115.9 5.76C115.9 4.8 115.42 4.32 114.46 4.32H110.38C109.42 4.32 108.94 4.8 108.94 5.76V13.44C108.94 14.4 109.42 14.88 110.38 14.88H114.46C115.42 14.88 115.9 14.4 115.9 13.44V5.76ZM120.22 13.44C120.22 15.12 119.836 16.344 119.068 17.112C118.316 17.864 117.1 18.24 115.42 18.24H109.42C107.74 18.24 106.516 17.864 105.748 17.112C104.996 16.344 104.62 15.12 104.62 13.44V5.76C104.62 4.08 104.996 2.864 105.748 2.112C106.516 1.344 107.74 0.959999 109.42 0.959999H115.42C117.1 0.959999 118.316 1.344 119.068 2.112C119.836 2.864 120.22 4.08 120.22 5.76V13.44ZM138.351 18H133.791L128.031 7.92V18H123.711V1.2H128.271L134.031 11.28V1.2H138.351V18Z" fill="white"/>
</svg>
