<svg width="141" height="32" viewBox="0 0 141 32" fill="none" xmlns="http://www.w3.org/2000/svg">
<path d="M1.44 7.2H11.52C13.2 7.2 14.416 7.584 15.168 8.352C15.936 9.104 16.32 10.32 16.32 12V14.4C16.32 16.08 15.936 17.304 15.168 18.072C14.416 18.824 13.2 19.2 11.52 19.2H5.76V24H1.44V7.2ZM12 12C12 11.04 11.52 10.56 10.56 10.56H5.76V15.84H10.56C11.52 15.84 12 15.36 12 14.4V12ZM21.1294 24H16.4494L22.8094 7.2H27.6094L33.9694 24H29.2894L28.2094 21H22.2094L21.1294 24ZM23.2894 17.88H27.1294L25.2094 12.24L23.2894 17.88ZM50.8884 24H46.3284L40.5684 13.92V24H36.2484V7.2H40.8084L46.5684 17.28V7.2H50.8884V24ZM64.2197 7.2C66.0277 7.2 67.3957 7.672 68.3237 8.616C69.2677 9.544 69.7397 10.912 69.7397 12.72V18.48C69.7397 20.288 69.2677 21.664 68.3237 22.608C67.3957 23.536 66.0277 24 64.2197 24H54.8597V7.2H64.2197ZM65.4197 12.72C65.4197 11.28 64.6997 10.56 63.2597 10.56H59.1797V20.64H63.2597C64.6997 20.64 65.4197 19.92 65.4197 18.48V12.72ZM75.4866 24H70.8066L77.1666 7.2H81.9666L88.3266 24H83.6466L82.5666 21H76.5666L75.4866 24ZM77.6466 17.88H81.4866L79.5666 12.24L77.6466 17.88ZM103.097 23.76C99.5289 24.08 96.5689 24.24 94.2169 24.24C92.6489 24.24 91.4969 23.872 90.7609 23.136C90.0249 22.4 89.6569 21.248 89.6569 19.68V12C89.6569 10.32 90.0329 9.104 90.7849 8.352C91.5529 7.584 92.7769 7.2 94.4569 7.2H103.097V10.56H95.4169C94.4569 10.56 93.9769 11.04 93.9769 12V19.68C93.9769 20.048 94.0809 20.344 94.2889 20.568C94.5129 20.776 94.7929 20.88 95.1289 20.88C95.4649 20.88 95.8329 20.88 96.2329 20.88C96.6329 20.864 97.0489 20.848 97.4809 20.832C97.9129 20.816 98.3449 20.8 98.7769 20.784C99.2249 20.768 99.7929 20.736 100.481 20.688C101.185 20.64 102.057 20.584 103.097 20.52V23.76ZM116.9 11.76C116.9 10.8 116.42 10.32 115.46 10.32H111.38C110.42 10.32 109.94 10.8 109.94 11.76V19.44C109.94 20.4 110.42 20.88 111.38 20.88H115.46C116.42 20.88 116.9 20.4 116.9 19.44V11.76ZM121.22 19.44C121.22 21.12 120.836 22.344 120.068 23.112C119.316 23.864 118.1 24.24 116.42 24.24H110.42C108.74 24.24 107.516 23.864 106.748 23.112C105.996 22.344 105.62 21.12 105.62 19.44V11.76C105.62 10.08 105.996 8.864 106.748 8.112C107.516 7.344 108.74 6.96 110.42 6.96H116.42C118.1 6.96 119.316 7.344 120.068 8.112C120.836 8.864 121.22 10.08 121.22 11.76V19.44ZM139.351 24H134.791L129.031 13.92V24H124.711V7.2H129.271L135.031 17.28V7.2H139.351V24Z" fill="black"/>
</svg>
